<svg xmlns="http://www.w3.org/2000/svg" xmlns:xlink="http://www.w3.org/1999/xlink" width="50" zoomAndPan="magnify" viewBox="0 0 37.5 37.499999" height="50" preserveAspectRatio="xMidYMid meet" version="1.0"><defs><g/><clipPath id="f3d879a1a5"><path d="M 0.496094 0.496094 L 36.511719 0.496094 L 36.511719 36.511719 L 0.496094 36.511719 Z M 0.496094 0.496094 " clip-rule="nonzero"/></clipPath><clipPath id="328eb89c06"><path d="M 18.503906 0.496094 C 8.558594 0.496094 0.496094 8.558594 0.496094 18.503906 C 0.496094 28.449219 8.558594 36.511719 18.503906 36.511719 C 28.449219 36.511719 36.511719 28.449219 36.511719 18.503906 C 36.511719 8.558594 28.449219 0.496094 18.503906 0.496094 Z M 18.503906 0.496094 " clip-rule="nonzero"/></clipPath></defs><g clip-path="url(#f3d879a1a5)"><g clip-path="url(#328eb89c06)"><path fill="#bbac86" d="M 0.496094 0.496094 L 36.511719 0.496094 L 36.511719 36.511719 L 0.496094 36.511719 Z M 0.496094 0.496094 " fill-opacity="1" fill-rule="nonzero"/></g></g><g fill="#000000" fill-opacity="1"><g transform="translate(2.844911, 56.520914)"><g><path d="M 5.671875 -35.96875 C 6.035156 -36.144531 6.410156 -36.28125 6.796875 -36.375 C 7.179688 -36.46875 7.550781 -36.554688 7.90625 -36.640625 L 15.140625 -37.515625 L 7.84375 -39.015625 C 7.164062 -39.148438 6.441406 -39.441406 5.671875 -39.890625 C 3.828125 -41.054688 3.492188 -42.585938 4.671875 -44.484375 C 5.335938 -45.609375 6.171875 -46.171875 7.171875 -46.171875 C 7.847656 -46.171875 8.535156 -45.929688 9.234375 -45.453125 C 9.929688 -44.984375 10.457031 -44.484375 10.8125 -43.953125 L 15.421875 -38.328125 L 12.984375 -45.09375 C 12.710938 -45.769531 12.578125 -46.535156 12.578125 -47.390625 C 12.578125 -49.597656 13.703125 -50.703125 15.953125 -50.703125 C 18.117188 -50.703125 19.203125 -49.597656 19.203125 -47.390625 C 19.203125 -46.628906 19.066406 -45.863281 18.796875 -45.09375 L 16.359375 -38.0625 L 21.09375 -44.015625 C 21.363281 -44.328125 21.625 -44.609375 21.875 -44.859375 C 22.125 -45.109375 22.425781 -45.34375 22.78125 -45.5625 C 23.550781 -45.96875 24.226562 -46.171875 24.8125 -46.171875 C 25.800781 -46.171875 26.632812 -45.628906 27.3125 -44.546875 C 28.570312 -42.609375 28.234375 -41.054688 26.296875 -39.890625 C 25.941406 -39.660156 25.59375 -39.476562 25.25 -39.34375 C 24.914062 -39.207031 24.566406 -39.097656 24.203125 -39.015625 L 16.828125 -37.453125 L 24 -36.640625 C 24.675781 -36.597656 25.398438 -36.375 26.171875 -35.96875 C 28.109375 -34.976562 28.601562 -33.445312 27.65625 -31.375 C 26.976562 -30.15625 26.078125 -29.546875 24.953125 -29.546875 C 24.359375 -29.546875 23.769531 -29.703125 23.1875 -30.015625 C 22.875 -30.242188 22.570312 -30.457031 22.28125 -30.65625 C 21.988281 -30.863281 21.679688 -31.125 21.359375 -31.4375 L 16.5 -36.515625 L 18.734375 -30.09375 C 19.003906 -29.363281 19.140625 -28.617188 19.140625 -27.859375 C 19.140625 -25.597656 18.054688 -24.46875 15.890625 -24.46875 C 13.628906 -24.46875 12.5 -25.597656 12.5 -27.859375 C 12.5 -28.671875 12.632812 -29.414062 12.90625 -30.09375 L 15.140625 -36.3125 L 10.484375 -31.4375 C 10.023438 -30.9375 9.46875 -30.492188 8.8125 -30.109375 C 8.164062 -29.734375 7.503906 -29.546875 6.828125 -29.546875 C 5.742188 -29.546875 4.890625 -30.15625 4.265625 -31.375 C 3.222656 -33.394531 3.691406 -34.925781 5.671875 -35.96875 Z M 5.671875 -35.96875 "/></g></g></g></svg>